<mxfile host="app.diagrams.net" agent="Mozilla/5.0 (Windows NT 10.0; Win64; x64; rv:137.0) Gecko/20100101 Firefox/137.0" version="26.2.14">
  <diagram name="Página-1" id="5Zi_sT3vTMkmr6zWonN1">
    <mxGraphModel dx="1826" dy="751" grid="1" gridSize="10" guides="1" tooltips="1" connect="1" arrows="1" fold="1" page="0" pageScale="1" pageWidth="850" pageHeight="1100" background="none" math="0" shadow="0" adaptiveColors="none">
      <root>
        <mxCell id="0" />
        <mxCell id="1" parent="0" />
        <mxCell id="iX1jY3GCwm09wHr-5eQs-1" value="My Spot" style="swimlane;startSize=23;shadow=0;swimlaneLine=0;strokeWidth=1;rounded=1;labelBackgroundColor=none;comic=0;enumerate=0;backgroundOutline=0;strokeColor=default;fillColor=none;" vertex="1" parent="1">
          <mxGeometry x="80" y="30" width="550" height="1060" as="geometry" />
        </mxCell>
        <mxCell id="iX1jY3GCwm09wHr-5eQs-37" value="&lt;div&gt;Gerenciar&lt;/div&gt;&lt;div&gt;Estacionamentos&lt;/div&gt;" style="ellipse;whiteSpace=wrap;html=1;shadow=0;swimlaneLine=1;strokeWidth=1;rounded=1;labelBackgroundColor=none;comic=0;enumerate=0;backgroundOutline=0;" vertex="1" parent="iX1jY3GCwm09wHr-5eQs-1">
          <mxGeometry x="46" y="300" width="99" height="66" as="geometry" />
        </mxCell>
        <mxCell id="iX1jY3GCwm09wHr-5eQs-70" value="Enviar Mapa" style="ellipse;whiteSpace=wrap;html=1;shadow=0;swimlaneLine=1;strokeWidth=1;rounded=1;labelBackgroundColor=none;comic=0;enumerate=0;backgroundOutline=0;" vertex="1" parent="iX1jY3GCwm09wHr-5eQs-1">
          <mxGeometry x="240" y="303" width="90" height="60" as="geometry" />
        </mxCell>
        <mxCell id="iX1jY3GCwm09wHr-5eQs-127" value="&amp;lt;&amp;lt;extend&amp;gt;&amp;gt;" style="html=1;verticalAlign=bottom;labelBackgroundColor=none;endArrow=open;endFill=0;dashed=1;rounded=1;exitX=0;exitY=0.5;exitDx=0;exitDy=0;entryX=1;entryY=0.5;entryDx=0;entryDy=0;comic=0;enumerate=0;backgroundOutline=0;" edge="1" parent="iX1jY3GCwm09wHr-5eQs-1" source="iX1jY3GCwm09wHr-5eQs-70" target="iX1jY3GCwm09wHr-5eQs-37">
          <mxGeometry width="160" relative="1" as="geometry">
            <mxPoint x="429.5" y="530" as="sourcePoint" />
            <mxPoint x="362.5" y="477" as="targetPoint" />
          </mxGeometry>
        </mxCell>
        <mxCell id="iX1jY3GCwm09wHr-5eQs-13" value="Cadastrar&lt;div&gt;Usuario&lt;/div&gt;" style="ellipse;whiteSpace=wrap;html=1;shadow=0;swimlaneLine=1;strokeWidth=1;rounded=1;labelBackgroundColor=none;comic=0;enumerate=0;backgroundOutline=0;" vertex="1" parent="iX1jY3GCwm09wHr-5eQs-1">
          <mxGeometry x="50.5" y="770" width="90" height="60" as="geometry" />
        </mxCell>
        <mxCell id="iX1jY3GCwm09wHr-5eQs-15" value="Logar" style="ellipse;whiteSpace=wrap;html=1;shadow=0;swimlaneLine=1;strokeWidth=1;rounded=1;labelBackgroundColor=none;comic=0;enumerate=0;backgroundOutline=0;" vertex="1" parent="iX1jY3GCwm09wHr-5eQs-1">
          <mxGeometry x="50.5" y="540" width="90" height="60" as="geometry" />
        </mxCell>
        <mxCell id="iX1jY3GCwm09wHr-5eQs-21" value="Cadastrar veículo" style="ellipse;whiteSpace=wrap;html=1;shadow=0;swimlaneLine=1;strokeWidth=1;rounded=1;labelBackgroundColor=none;comic=0;enumerate=0;backgroundOutline=0;" vertex="1" parent="iX1jY3GCwm09wHr-5eQs-1">
          <mxGeometry x="50.5" y="910" width="90" height="60" as="geometry" />
        </mxCell>
        <mxCell id="iX1jY3GCwm09wHr-5eQs-23" value="&lt;div&gt;Escanear&lt;/div&gt;&lt;div&gt;QR Code&lt;/div&gt;" style="ellipse;whiteSpace=wrap;html=1;shadow=0;swimlaneLine=1;strokeWidth=1;rounded=1;labelBackgroundColor=none;comic=0;enumerate=0;backgroundOutline=0;" vertex="1" parent="iX1jY3GCwm09wHr-5eQs-1">
          <mxGeometry x="50.5" y="613" width="90" height="60" as="geometry" />
        </mxCell>
        <mxCell id="iX1jY3GCwm09wHr-5eQs-26" value="Pagamento" style="ellipse;whiteSpace=wrap;html=1;shadow=0;swimlaneLine=1;strokeWidth=1;rounded=1;labelBackgroundColor=none;comic=0;enumerate=0;backgroundOutline=0;" vertex="1" parent="iX1jY3GCwm09wHr-5eQs-1">
          <mxGeometry x="390" y="613" width="90" height="60" as="geometry" />
        </mxCell>
        <mxCell id="iX1jY3GCwm09wHr-5eQs-27" value="Pix" style="ellipse;whiteSpace=wrap;html=1;shadow=0;swimlaneLine=1;strokeWidth=1;rounded=1;labelBackgroundColor=none;comic=0;enumerate=0;backgroundOutline=0;" vertex="1" parent="iX1jY3GCwm09wHr-5eQs-1">
          <mxGeometry x="420" y="510" width="90" height="60" as="geometry" />
        </mxCell>
        <mxCell id="iX1jY3GCwm09wHr-5eQs-28" value="Cartão" style="ellipse;whiteSpace=wrap;html=1;shadow=0;swimlaneLine=1;strokeWidth=1;rounded=1;labelBackgroundColor=none;comic=0;enumerate=0;backgroundOutline=0;" vertex="1" parent="iX1jY3GCwm09wHr-5eQs-1">
          <mxGeometry x="420" y="729" width="90" height="60" as="geometry" />
        </mxCell>
        <mxCell id="iX1jY3GCwm09wHr-5eQs-29" value="Ver Vagas Disponíveis" style="ellipse;whiteSpace=wrap;html=1;shadow=0;swimlaneLine=1;strokeWidth=1;rounded=1;labelBackgroundColor=none;comic=0;enumerate=0;backgroundOutline=0;" vertex="1" parent="iX1jY3GCwm09wHr-5eQs-1">
          <mxGeometry x="236" y="614" width="90" height="60" as="geometry" />
        </mxCell>
        <mxCell id="iX1jY3GCwm09wHr-5eQs-30" value="Ver as Empresas" style="ellipse;whiteSpace=wrap;html=1;shadow=0;swimlaneLine=1;strokeWidth=1;rounded=1;labelBackgroundColor=none;comic=0;enumerate=0;backgroundOutline=0;" vertex="1" parent="iX1jY3GCwm09wHr-5eQs-1">
          <mxGeometry x="50.5" y="690" width="90" height="60" as="geometry" />
        </mxCell>
        <mxCell id="iX1jY3GCwm09wHr-5eQs-33" value="Cadastrar Empresa" style="ellipse;whiteSpace=wrap;html=1;shadow=0;swimlaneLine=1;strokeWidth=1;rounded=1;labelBackgroundColor=none;comic=0;enumerate=0;backgroundOutline=0;" vertex="1" parent="iX1jY3GCwm09wHr-5eQs-1">
          <mxGeometry x="46" y="450" width="90" height="60" as="geometry" />
        </mxCell>
        <mxCell id="iX1jY3GCwm09wHr-5eQs-43" value="&lt;div&gt;Editar&lt;/div&gt;&lt;div&gt;Perfil&lt;/div&gt;" style="ellipse;whiteSpace=wrap;html=1;shadow=0;swimlaneLine=1;strokeWidth=1;rounded=1;labelBackgroundColor=none;comic=0;enumerate=0;backgroundOutline=0;" vertex="1" parent="iX1jY3GCwm09wHr-5eQs-1">
          <mxGeometry x="50.5" y="840" width="90" height="60" as="geometry" />
        </mxCell>
        <mxCell id="iX1jY3GCwm09wHr-5eQs-47" value="&lt;div&gt;Editar&lt;/div&gt;&lt;div&gt;Empresa&lt;/div&gt;" style="ellipse;whiteSpace=wrap;html=1;shadow=0;swimlaneLine=1;strokeWidth=1;rounded=1;labelBackgroundColor=none;comic=0;enumerate=0;backgroundOutline=0;" vertex="1" parent="iX1jY3GCwm09wHr-5eQs-1">
          <mxGeometry x="46" y="380" width="90" height="60" as="geometry" />
        </mxCell>
        <mxCell id="iX1jY3GCwm09wHr-5eQs-84" value="&amp;lt;&amp;lt;include&amp;gt;&amp;gt;" style="html=1;verticalAlign=bottom;labelBackgroundColor=none;endArrow=open;endFill=0;dashed=1;rounded=1;exitX=1;exitY=0.5;exitDx=0;exitDy=0;entryX=0;entryY=0.5;entryDx=0;entryDy=0;comic=0;enumerate=0;backgroundOutline=0;" edge="1" parent="iX1jY3GCwm09wHr-5eQs-1" source="iX1jY3GCwm09wHr-5eQs-15" target="iX1jY3GCwm09wHr-5eQs-200">
          <mxGeometry width="160" relative="1" as="geometry">
            <mxPoint x="76.5" y="600" as="sourcePoint" />
            <mxPoint x="236.5" y="600" as="targetPoint" />
          </mxGeometry>
        </mxCell>
        <mxCell id="iX1jY3GCwm09wHr-5eQs-92" value="&amp;lt;&amp;lt;include&amp;gt;&amp;gt;" style="html=1;verticalAlign=bottom;labelBackgroundColor=none;endArrow=open;endFill=0;dashed=1;rounded=1;exitX=1;exitY=0.5;exitDx=0;exitDy=0;comic=0;enumerate=0;backgroundOutline=0;entryX=0;entryY=0.5;entryDx=0;entryDy=0;" edge="1" parent="iX1jY3GCwm09wHr-5eQs-1" source="iX1jY3GCwm09wHr-5eQs-23" target="iX1jY3GCwm09wHr-5eQs-29">
          <mxGeometry width="160" relative="1" as="geometry">
            <mxPoint x="228" y="777" as="sourcePoint" />
            <mxPoint x="150" y="660" as="targetPoint" />
          </mxGeometry>
        </mxCell>
        <mxCell id="iX1jY3GCwm09wHr-5eQs-93" value="&amp;lt;&amp;lt;extend&amp;gt;&amp;gt;" style="html=1;verticalAlign=bottom;labelBackgroundColor=none;endArrow=open;endFill=0;dashed=1;rounded=1;exitX=0;exitY=0.5;exitDx=0;exitDy=0;entryX=1;entryY=0.5;entryDx=0;entryDy=0;comic=0;enumerate=0;backgroundOutline=0;" edge="1" parent="iX1jY3GCwm09wHr-5eQs-1" source="iX1jY3GCwm09wHr-5eQs-26" target="iX1jY3GCwm09wHr-5eQs-29">
          <mxGeometry width="160" relative="1" as="geometry">
            <mxPoint x="246" y="654" as="sourcePoint" />
            <mxPoint x="175" y="695" as="targetPoint" />
          </mxGeometry>
        </mxCell>
        <mxCell id="iX1jY3GCwm09wHr-5eQs-125" value="&amp;lt;&amp;lt;extend&amp;gt;&amp;gt;" style="html=1;verticalAlign=bottom;labelBackgroundColor=none;endArrow=open;endFill=0;dashed=1;rounded=1;exitX=0.5;exitY=0;exitDx=0;exitDy=0;entryX=0.5;entryY=1;entryDx=0;entryDy=0;comic=0;enumerate=0;backgroundOutline=0;" edge="1" parent="iX1jY3GCwm09wHr-5eQs-1" source="iX1jY3GCwm09wHr-5eQs-28" target="iX1jY3GCwm09wHr-5eQs-26">
          <mxGeometry x="0.0249" y="7" width="160" relative="1" as="geometry">
            <mxPoint x="435" y="617" as="sourcePoint" />
            <mxPoint x="368" y="564" as="targetPoint" />
            <mxPoint as="offset" />
          </mxGeometry>
        </mxCell>
        <mxCell id="iX1jY3GCwm09wHr-5eQs-126" value="&amp;lt;&amp;lt;extend&amp;gt;&amp;gt;" style="html=1;verticalAlign=bottom;labelBackgroundColor=none;endArrow=open;endFill=0;dashed=1;rounded=1;exitX=0.5;exitY=1;exitDx=0;exitDy=0;entryX=0.5;entryY=0;entryDx=0;entryDy=0;comic=0;enumerate=0;backgroundOutline=0;" edge="1" parent="iX1jY3GCwm09wHr-5eQs-1" source="iX1jY3GCwm09wHr-5eQs-27" target="iX1jY3GCwm09wHr-5eQs-26">
          <mxGeometry width="160" relative="1" as="geometry">
            <mxPoint x="445" y="627" as="sourcePoint" />
            <mxPoint x="378" y="574" as="targetPoint" />
          </mxGeometry>
        </mxCell>
        <mxCell id="iX1jY3GCwm09wHr-5eQs-179" value="&lt;div&gt;Editar&lt;/div&gt;&lt;div&gt;Veiculo&lt;/div&gt;" style="ellipse;whiteSpace=wrap;html=1;shadow=0;swimlaneLine=1;strokeWidth=1;rounded=1;labelBackgroundColor=none;comic=0;enumerate=0;backgroundOutline=0;" vertex="1" parent="iX1jY3GCwm09wHr-5eQs-1">
          <mxGeometry x="50.5" y="990" width="90" height="60" as="geometry" />
        </mxCell>
        <mxCell id="iX1jY3GCwm09wHr-5eQs-181" value="&amp;lt;&amp;lt;extend&amp;gt;&amp;gt;" style="html=1;verticalAlign=bottom;labelBackgroundColor=none;endArrow=open;endFill=0;dashed=1;rounded=1;exitX=0;exitY=1;exitDx=0;exitDy=0;entryX=1;entryY=0;entryDx=0;entryDy=0;comic=0;enumerate=0;backgroundOutline=0;" edge="1" parent="iX1jY3GCwm09wHr-5eQs-1" source="iX1jY3GCwm09wHr-5eQs-29" target="iX1jY3GCwm09wHr-5eQs-30">
          <mxGeometry width="160" relative="1" as="geometry">
            <mxPoint x="305.5" y="729" as="sourcePoint" />
            <mxPoint x="234.5" y="770" as="targetPoint" />
          </mxGeometry>
        </mxCell>
        <mxCell id="iX1jY3GCwm09wHr-5eQs-200" value="&lt;div&gt;Validar&lt;/div&gt;&lt;div&gt;Senha&lt;/div&gt;" style="ellipse;whiteSpace=wrap;html=1;shadow=0;swimlaneLine=1;strokeWidth=1;rounded=1;labelBackgroundColor=none;comic=0;enumerate=0;backgroundOutline=0;" vertex="1" parent="iX1jY3GCwm09wHr-5eQs-1">
          <mxGeometry x="213.5" y="540" width="90" height="60" as="geometry" />
        </mxCell>
        <mxCell id="iX1jY3GCwm09wHr-5eQs-4" value="Gerenciar o sistema" style="ellipse;whiteSpace=wrap;html=1;shadow=0;swimlaneLine=1;strokeWidth=1;rounded=1;labelBackgroundColor=none;comic=0;enumerate=0;backgroundOutline=0;" vertex="1" parent="iX1jY3GCwm09wHr-5eQs-1">
          <mxGeometry x="45.5" y="220" width="90" height="60" as="geometry" />
        </mxCell>
        <mxCell id="iX1jY3GCwm09wHr-5eQs-6" value="Gerenciar Empresas" style="ellipse;whiteSpace=wrap;html=1;shadow=0;swimlaneLine=1;strokeWidth=1;rounded=1;labelBackgroundColor=none;comic=0;enumerate=0;backgroundOutline=0;" vertex="1" parent="iX1jY3GCwm09wHr-5eQs-1">
          <mxGeometry x="45.5" y="80" width="90" height="60" as="geometry" />
        </mxCell>
        <mxCell id="iX1jY3GCwm09wHr-5eQs-7" value="Gerenciar Usuários" style="ellipse;whiteSpace=wrap;html=1;shadow=0;swimlaneLine=1;strokeWidth=1;rounded=1;labelBackgroundColor=none;comic=0;enumerate=0;backgroundOutline=0;" vertex="1" parent="iX1jY3GCwm09wHr-5eQs-1">
          <mxGeometry x="45.5" y="150" width="90" height="60" as="geometry" />
        </mxCell>
        <mxCell id="iX1jY3GCwm09wHr-5eQs-8" value="&lt;div&gt;Autenticar&amp;nbsp;&lt;/div&gt;&lt;div&gt;Mapa&lt;/div&gt;" style="ellipse;whiteSpace=wrap;html=1;shadow=0;swimlaneLine=1;strokeWidth=1;rounded=1;labelBackgroundColor=none;comic=0;enumerate=0;backgroundOutline=0;" vertex="1" parent="iX1jY3GCwm09wHr-5eQs-1">
          <mxGeometry x="213.5" y="80" width="90" height="60" as="geometry" />
        </mxCell>
        <mxCell id="iX1jY3GCwm09wHr-5eQs-168" value="&amp;lt;&amp;lt;extend&amp;gt;&amp;gt;" style="html=1;verticalAlign=bottom;labelBackgroundColor=none;endArrow=open;endFill=0;dashed=1;rounded=1;exitX=0;exitY=0.5;exitDx=0;exitDy=0;entryX=1;entryY=0.5;entryDx=0;entryDy=0;comic=0;enumerate=0;backgroundOutline=0;" edge="1" parent="iX1jY3GCwm09wHr-5eQs-1" source="iX1jY3GCwm09wHr-5eQs-8" target="iX1jY3GCwm09wHr-5eQs-6">
          <mxGeometry width="160" relative="1" as="geometry">
            <mxPoint x="183.5" y="140" as="sourcePoint" />
            <mxPoint x="110.5" y="179" as="targetPoint" />
          </mxGeometry>
        </mxCell>
        <mxCell id="iX1jY3GCwm09wHr-5eQs-202" value="Excluir&lt;div&gt;Veiculo&lt;/div&gt;" style="ellipse;whiteSpace=wrap;html=1;shadow=0;swimlaneLine=1;strokeWidth=1;rounded=1;labelBackgroundColor=none;comic=0;enumerate=0;backgroundOutline=0;" vertex="1" parent="iX1jY3GCwm09wHr-5eQs-1">
          <mxGeometry x="213.5" y="990" width="90" height="60" as="geometry" />
        </mxCell>
        <mxCell id="iX1jY3GCwm09wHr-5eQs-203" value="&amp;lt;&amp;lt;extend&amp;gt;&amp;gt;" style="html=1;verticalAlign=bottom;labelBackgroundColor=none;endArrow=open;endFill=0;dashed=1;rounded=1;exitX=0;exitY=0.5;exitDx=0;exitDy=0;entryX=1;entryY=0.5;entryDx=0;entryDy=0;comic=0;enumerate=0;backgroundOutline=0;" edge="1" parent="iX1jY3GCwm09wHr-5eQs-1" source="iX1jY3GCwm09wHr-5eQs-202" target="iX1jY3GCwm09wHr-5eQs-179">
          <mxGeometry width="160" relative="1" as="geometry">
            <mxPoint x="190" y="1020" as="sourcePoint" />
            <mxPoint x="146" y="990" as="targetPoint" />
          </mxGeometry>
        </mxCell>
        <mxCell id="iX1jY3GCwm09wHr-5eQs-206" style="edgeStyle=none;shape=connector;rounded=1;comic=0;orthogonalLoop=1;jettySize=auto;html=1;entryX=0;entryY=0.5;entryDx=0;entryDy=0;strokeColor=default;align=center;verticalAlign=middle;fontFamily=Helvetica;fontSize=11;fontColor=default;labelBackgroundColor=default;startFill=0;endArrow=none;" edge="1" parent="1" source="iX1jY3GCwm09wHr-5eQs-11" target="iX1jY3GCwm09wHr-5eQs-179">
          <mxGeometry relative="1" as="geometry" />
        </mxCell>
        <mxCell id="iX1jY3GCwm09wHr-5eQs-11" value="Cliente" style="shape=umlActor;verticalLabelPosition=bottom;verticalAlign=top;html=1;outlineConnect=0;shadow=0;swimlaneLine=1;strokeWidth=1;rounded=1;labelBackgroundColor=none;comic=0;enumerate=0;backgroundOutline=0;" vertex="1" parent="1">
          <mxGeometry x="20" y="800" width="30" height="60" as="geometry" />
        </mxCell>
        <mxCell id="iX1jY3GCwm09wHr-5eQs-62" style="rounded=1;orthogonalLoop=1;jettySize=auto;html=1;entryX=0;entryY=0.5;entryDx=0;entryDy=0;endArrow=none;startFill=0;comic=0;enumerate=0;backgroundOutline=0;" edge="1" parent="1" source="iX1jY3GCwm09wHr-5eQs-11" target="iX1jY3GCwm09wHr-5eQs-13">
          <mxGeometry relative="1" as="geometry" />
        </mxCell>
        <mxCell id="iX1jY3GCwm09wHr-5eQs-190" style="shape=connector;rounded=1;comic=0;orthogonalLoop=1;jettySize=auto;html=1;entryX=0;entryY=0.5;entryDx=0;entryDy=0;strokeColor=default;align=center;verticalAlign=middle;fontFamily=Helvetica;fontSize=11;fontColor=default;labelBackgroundColor=default;startFill=0;endArrow=none;" edge="1" parent="1" source="iX1jY3GCwm09wHr-5eQs-11" target="iX1jY3GCwm09wHr-5eQs-43">
          <mxGeometry relative="1" as="geometry" />
        </mxCell>
        <mxCell id="iX1jY3GCwm09wHr-5eQs-191" style="shape=connector;rounded=1;comic=0;orthogonalLoop=1;jettySize=auto;html=1;entryX=0;entryY=0.5;entryDx=0;entryDy=0;strokeColor=default;align=center;verticalAlign=middle;fontFamily=Helvetica;fontSize=11;fontColor=default;labelBackgroundColor=default;startFill=0;endArrow=none;" edge="1" parent="1" source="iX1jY3GCwm09wHr-5eQs-11" target="iX1jY3GCwm09wHr-5eQs-23">
          <mxGeometry relative="1" as="geometry" />
        </mxCell>
        <mxCell id="iX1jY3GCwm09wHr-5eQs-192" style="shape=connector;rounded=1;comic=0;orthogonalLoop=1;jettySize=auto;html=1;entryX=0;entryY=0.5;entryDx=0;entryDy=0;strokeColor=default;align=center;verticalAlign=middle;fontFamily=Helvetica;fontSize=11;fontColor=default;labelBackgroundColor=default;startFill=0;endArrow=none;" edge="1" parent="1" source="iX1jY3GCwm09wHr-5eQs-11" target="iX1jY3GCwm09wHr-5eQs-30">
          <mxGeometry relative="1" as="geometry" />
        </mxCell>
        <mxCell id="iX1jY3GCwm09wHr-5eQs-185" style="shape=connector;rounded=1;comic=0;orthogonalLoop=1;jettySize=auto;html=1;strokeColor=default;align=center;verticalAlign=middle;fontFamily=Helvetica;fontSize=11;fontColor=default;labelBackgroundColor=default;startFill=0;endArrow=none;" edge="1" parent="1" source="iX1jY3GCwm09wHr-5eQs-52" target="iX1jY3GCwm09wHr-5eQs-11">
          <mxGeometry relative="1" as="geometry" />
        </mxCell>
        <mxCell id="iX1jY3GCwm09wHr-5eQs-199" value="&amp;lt;use&amp;gt;" style="edgeLabel;html=1;align=center;verticalAlign=middle;resizable=0;points=[];rounded=1;fontFamily=Helvetica;fontSize=11;fontColor=default;labelBackgroundColor=default;" vertex="1" connectable="0" parent="iX1jY3GCwm09wHr-5eQs-185">
          <mxGeometry x="-0.1438" y="-1" relative="1" as="geometry">
            <mxPoint as="offset" />
          </mxGeometry>
        </mxCell>
        <mxCell id="iX1jY3GCwm09wHr-5eQs-201" style="edgeStyle=none;shape=connector;rounded=1;comic=0;orthogonalLoop=1;jettySize=auto;html=1;entryX=0;entryY=0.5;entryDx=0;entryDy=0;strokeColor=default;align=center;verticalAlign=middle;fontFamily=Helvetica;fontSize=11;fontColor=default;labelBackgroundColor=default;startFill=0;endArrow=none;" edge="1" parent="1" source="iX1jY3GCwm09wHr-5eQs-11" target="iX1jY3GCwm09wHr-5eQs-21">
          <mxGeometry relative="1" as="geometry" />
        </mxCell>
        <mxCell id="iX1jY3GCwm09wHr-5eQs-42" value="Empresa" style="shape=umlActor;verticalLabelPosition=bottom;verticalAlign=top;html=1;outlineConnect=0;shadow=0;swimlaneLine=1;strokeWidth=1;rounded=1;labelBackgroundColor=none;comic=0;enumerate=0;backgroundOutline=0;" vertex="1" parent="1">
          <mxGeometry x="20" y="410" width="30" height="60" as="geometry" />
        </mxCell>
        <mxCell id="iX1jY3GCwm09wHr-5eQs-186" style="shape=connector;rounded=1;comic=0;orthogonalLoop=1;jettySize=auto;html=1;entryX=0;entryY=0.5;entryDx=0;entryDy=0;strokeColor=default;align=center;verticalAlign=middle;fontFamily=Helvetica;fontSize=11;fontColor=default;labelBackgroundColor=default;startFill=0;endArrow=none;" edge="1" parent="1" source="iX1jY3GCwm09wHr-5eQs-42" target="iX1jY3GCwm09wHr-5eQs-33">
          <mxGeometry relative="1" as="geometry" />
        </mxCell>
        <mxCell id="iX1jY3GCwm09wHr-5eQs-193" style="shape=connector;rounded=1;comic=0;orthogonalLoop=1;jettySize=auto;html=1;entryX=0;entryY=0.5;entryDx=0;entryDy=0;strokeColor=default;align=center;verticalAlign=middle;fontFamily=Helvetica;fontSize=11;fontColor=default;labelBackgroundColor=default;startFill=0;endArrow=none;" edge="1" parent="1" source="iX1jY3GCwm09wHr-5eQs-42" target="iX1jY3GCwm09wHr-5eQs-37">
          <mxGeometry relative="1" as="geometry" />
        </mxCell>
        <mxCell id="iX1jY3GCwm09wHr-5eQs-194" style="shape=connector;rounded=1;comic=0;orthogonalLoop=1;jettySize=auto;html=1;entryX=0;entryY=0.5;entryDx=0;entryDy=0;strokeColor=default;align=center;verticalAlign=middle;fontFamily=Helvetica;fontSize=11;fontColor=default;labelBackgroundColor=default;startFill=0;endArrow=none;" edge="1" parent="1" source="iX1jY3GCwm09wHr-5eQs-42" target="iX1jY3GCwm09wHr-5eQs-47">
          <mxGeometry relative="1" as="geometry" />
        </mxCell>
        <mxCell id="iX1jY3GCwm09wHr-5eQs-184" style="shape=connector;rounded=1;comic=0;orthogonalLoop=1;jettySize=auto;html=1;strokeColor=default;align=center;verticalAlign=middle;fontFamily=Helvetica;fontSize=11;fontColor=default;labelBackgroundColor=default;startFill=0;endArrow=none;" edge="1" parent="1" source="iX1jY3GCwm09wHr-5eQs-52" target="iX1jY3GCwm09wHr-5eQs-42">
          <mxGeometry relative="1" as="geometry" />
        </mxCell>
        <mxCell id="iX1jY3GCwm09wHr-5eQs-198" value="&amp;lt;use&amp;gt;" style="edgeLabel;html=1;align=center;verticalAlign=middle;resizable=0;points=[];rounded=1;fontFamily=Helvetica;fontSize=11;fontColor=default;labelBackgroundColor=default;" vertex="1" connectable="0" parent="iX1jY3GCwm09wHr-5eQs-184">
          <mxGeometry x="-0.3615" y="2" relative="1" as="geometry">
            <mxPoint as="offset" />
          </mxGeometry>
        </mxCell>
        <mxCell id="iX1jY3GCwm09wHr-5eQs-207" style="edgeStyle=none;shape=connector;rounded=1;comic=0;orthogonalLoop=1;jettySize=auto;html=1;entryX=0;entryY=0.5;entryDx=0;entryDy=0;strokeColor=default;align=center;verticalAlign=middle;fontFamily=Helvetica;fontSize=11;fontColor=default;labelBackgroundColor=default;startFill=0;endArrow=none;" edge="1" parent="1" source="iX1jY3GCwm09wHr-5eQs-52" target="iX1jY3GCwm09wHr-5eQs-15">
          <mxGeometry relative="1" as="geometry" />
        </mxCell>
        <mxCell id="iX1jY3GCwm09wHr-5eQs-52" value="Usuario" style="shape=umlActor;verticalLabelPosition=bottom;verticalAlign=top;html=1;outlineConnect=0;shadow=0;swimlaneLine=1;strokeWidth=1;rounded=1;labelBackgroundColor=none;comic=0;enumerate=0;backgroundOutline=0;" vertex="1" parent="1">
          <mxGeometry x="20" y="570" width="30" height="60" as="geometry" />
        </mxCell>
        <mxCell id="iX1jY3GCwm09wHr-5eQs-39" value="Administrador" style="shape=umlActor;verticalLabelPosition=bottom;verticalAlign=top;html=1;outlineConnect=0;shadow=0;swimlaneLine=1;strokeWidth=1;rounded=1;labelBackgroundColor=none;comic=0;enumerate=0;backgroundOutline=0;" vertex="1" parent="1">
          <mxGeometry x="20" y="180" width="30" height="60" as="geometry" />
        </mxCell>
        <mxCell id="iX1jY3GCwm09wHr-5eQs-195" style="shape=connector;rounded=1;comic=0;orthogonalLoop=1;jettySize=auto;html=1;entryX=0;entryY=0.5;entryDx=0;entryDy=0;strokeColor=default;align=center;verticalAlign=middle;fontFamily=Helvetica;fontSize=11;fontColor=default;labelBackgroundColor=default;startFill=0;endArrow=none;" edge="1" parent="1" source="iX1jY3GCwm09wHr-5eQs-39" target="iX1jY3GCwm09wHr-5eQs-4">
          <mxGeometry relative="1" as="geometry" />
        </mxCell>
        <mxCell id="iX1jY3GCwm09wHr-5eQs-204" style="edgeStyle=none;shape=connector;rounded=1;comic=0;orthogonalLoop=1;jettySize=auto;html=1;entryX=0;entryY=0.5;entryDx=0;entryDy=0;strokeColor=default;align=center;verticalAlign=middle;fontFamily=Helvetica;fontSize=11;fontColor=default;labelBackgroundColor=default;startFill=0;endArrow=none;" edge="1" parent="1" source="iX1jY3GCwm09wHr-5eQs-39" target="iX1jY3GCwm09wHr-5eQs-7">
          <mxGeometry relative="1" as="geometry" />
        </mxCell>
        <mxCell id="iX1jY3GCwm09wHr-5eQs-205" style="edgeStyle=none;shape=connector;rounded=1;comic=0;orthogonalLoop=1;jettySize=auto;html=1;entryX=0;entryY=0.5;entryDx=0;entryDy=0;strokeColor=default;align=center;verticalAlign=middle;fontFamily=Helvetica;fontSize=11;fontColor=default;labelBackgroundColor=default;startFill=0;endArrow=none;" edge="1" parent="1" source="iX1jY3GCwm09wHr-5eQs-39" target="iX1jY3GCwm09wHr-5eQs-6">
          <mxGeometry relative="1" as="geometry" />
        </mxCell>
      </root>
    </mxGraphModel>
  </diagram>
</mxfile>
